<svg width="105" height="26" viewBox="0 0 105 26" fill="none" xmlns="http://www.w3.org/2000/svg">
<path d="M22.9282 5.81451C22.2434 6.85381 20.8737 7.25643 19.7495 6.704C17.4053 5.55 14.7175 4.97417 11.6885 4.97417C7.63831 4.97417 5.61324 5.85664 5.61324 7.61925C5.61324 8.27701 5.87834 8.74751 6.40608 9.03074C6.93383 9.31398 7.75859 9.51763 8.8779 9.63467L16.4063 10.4867C22.1035 11.1655 24.9926 13.5906 25.0662 17.7595C25.1104 20.2993 23.7579 22.7033 21.5315 23.9743C19.1726 25.3179 16.0135 25.9921 12.0542 25.9921C8.09487 25.9921 4.46692 25.14 1.33972 23.4383C0.0633049 22.7431 -0.388348 21.149 0.36768 19.9177L0.433955 19.8101C1.14334 18.6584 2.63576 18.2862 3.83608 18.9229C6.58527 20.3789 9.53574 21.1068 12.6875 21.1068C14.7739 21.1068 16.4431 20.8447 17.6974 20.3227C18.9517 19.8007 19.5801 19.0306 19.5801 18.0147C19.5801 17.3265 19.369 16.8138 18.9444 16.4698C18.5197 16.1257 17.7809 15.8939 16.7229 15.7745L8.28879 14.8335C5.59851 14.5363 3.55134 13.8176 2.14484 12.6824C0.73833 11.5471 0.0363038 9.87343 0.0363038 7.66373C0.0363038 5.15207 1.13107 3.24901 3.32306 1.94987C5.51505 0.650738 8.30352 0 11.6909 0C15.6576 0 19.0867 0.739688 21.9783 2.21438C23.3112 2.89555 23.7481 4.57155 22.9282 5.81451Z" fill="#8CB031"/>
<path d="M45.3873 0.206055H27.5225C26.1209 0.206055 24.9844 1.32963 24.9844 2.71538C24.9844 4.10112 26.1209 5.2247 27.5225 5.2247H33.6198V23.2721C33.6198 24.6579 34.7563 25.7815 36.1579 25.7815H36.747C38.1486 25.7815 39.2851 24.6579 39.2851 23.2721V5.2247H45.3824C46.784 5.2247 47.9205 4.10112 47.9205 2.71538C47.9205 1.32963 46.784 0.206055 45.3824 0.206055H45.3873Z" fill="#8CB031"/>
<path d="M90.0723 9.10645C88.9235 9.10645 87.9711 9.45756 87.2175 10.1598C86.464 10.862 86.0859 11.81 86.0859 13.0038C86.0859 14.1976 86.464 15.1433 87.2175 15.8479C87.9711 16.5501 88.9235 16.9013 90.0723 16.9013C91.221 16.9013 92.1734 16.5501 92.927 15.8479C93.6806 15.1457 94.0586 14.1976 94.0586 13.0038C94.0586 11.81 93.6806 10.862 92.927 10.1598C92.1734 9.45756 91.221 9.10645 90.0723 9.10645Z" fill="#1C230C"/>
<path d="M101.232 21.1498C103.161 18.9284 104.131 16.2154 104.131 13.0038C104.131 9.179 102.764 6.05874 100.027 3.63837C97.29 1.218 93.9737 0.0078125 90.0733 0.0078125C86.1729 0.0078125 82.8567 1.218 80.1198 3.63837C77.3829 6.05874 76.0156 9.18134 76.0156 13.0038C76.0156 16.8263 77.3829 19.9489 80.1198 22.3693C82.8542 24.7897 86.1729 25.9999 90.0733 25.9999C92.663 25.9999 94.9949 25.4638 97.069 24.3964L97.9208 25.2391C98.9493 26.255 100.616 26.255 101.644 25.2391C102.673 24.2232 102.673 22.5753 101.644 21.5594L101.232 21.1521V21.1498ZM90.0733 21.2036C87.6555 21.2036 85.6525 20.4639 84.0644 18.9845C82.4762 17.5052 81.6834 15.5132 81.6834 13.0038C81.6834 10.4945 82.4762 8.50017 84.0644 7.0208C85.6525 5.54142 87.6531 4.80174 90.0733 4.80174C92.4936 4.80174 94.4941 5.54142 96.0823 7.0208C97.6704 8.50017 98.4633 10.4945 98.4633 13.0038C98.4633 15.5132 97.6704 17.5075 96.0823 18.9845C94.4941 20.4639 92.4911 21.2036 90.0733 21.2036Z" fill="#8CB031"/>
<path d="M60.7871 9.09668C59.6383 9.09668 58.6859 9.4478 57.9324 10.15C57.1788 10.8523 56.8008 11.8003 56.8008 12.9941C56.8008 14.1879 57.1788 15.1336 57.9324 15.8381C58.6859 16.5404 59.6383 16.8915 60.7871 16.8915C61.9359 16.8915 62.8883 16.5404 63.6419 15.8381C64.3954 15.1359 64.7734 14.1879 64.7734 12.9941C64.7734 11.8003 64.3954 10.8523 63.6419 10.15C62.8883 9.4478 61.9359 9.09668 60.7871 9.09668Z" fill="#1C230C"/>
<path d="M70.7417 3.63056C68.0048 1.21019 64.6886 0 60.7882 0C56.8877 0 53.5715 1.21019 50.8346 3.63056C48.0977 6.05093 46.7305 9.17353 46.7305 12.996C46.7305 16.8185 48.0977 19.9411 50.8346 22.3615C53.5691 24.7819 56.8877 25.9921 60.7882 25.9921C64.6886 25.9921 68.0048 24.7819 70.7417 22.3615C73.4762 19.9411 74.8459 16.8209 74.8459 12.996C74.8459 9.17119 73.4786 6.05093 70.7417 3.63056ZM66.7971 18.9767C65.209 20.4561 63.206 21.1958 60.7882 21.1958C58.3703 21.1958 56.3674 20.4561 54.7792 18.9767C53.1911 17.4974 52.3982 15.5054 52.3982 12.996C52.3982 10.4867 53.1911 8.49236 54.7792 7.01299C56.3674 5.53361 58.3679 4.79392 60.7882 4.79392C63.2084 4.79392 65.209 5.53361 66.7971 7.01299C68.3853 8.49236 69.1781 10.4867 69.1781 12.996C69.1781 15.5054 68.3853 17.4997 66.7971 18.9767Z" fill="#1C230C"/>
</svg>
